# xmcd
#
# Track frame offsets:
#	150
#	33232
#	54387
#	96638
#	147749
#	151920
#
# Disc length: 3032 seconds
#
# Revision: 1
# Processed by: cddbd v1.5.2PL0 Copyright (c) Steve Scherf et al.
# Submitted via: audiograbber 1.83.01
#
DISCID=500bd606
DTITLE=Grateful Dead - 73-09-15 Providence Civic Centre, Providence RI
DYEAR=1900
DGENRE=
TTITLE0=Mississippi Half-Step
TTITLE1=Big River
TTITLE2=Row Jimmy
TTITLE3=Truckin'
TTITLE4=Drums
TTITLE5=Eyes Of The World
EXTD=
EXTT0=
EXTT1=
EXTT2=
EXTT3=
EXTT4=
EXTT5=
PLAYORDER=
